<?xml version="1.0" encoding="UTF-8" standalone="no"?>
<svg
   xmlns:dc="http://purl.org/dc/elements/1.1/"
   xmlns:cc="http://creativecommons.org/ns#"
   xmlns:rdf="http://www.w3.org/1999/02/22-rdf-syntax-ns#"
   xmlns:svg="http://www.w3.org/2000/svg"
   xmlns="http://www.w3.org/2000/svg"
   xmlns:sodipodi="http://sodipodi.sourceforge.net/DTD/sodipodi-0.dtd"
   xmlns:inkscape="http://www.inkscape.org/namespaces/inkscape"
   viewBox="0 0 279.4 127"
   version="1.1"
   id="svg16"
   sodipodi:docname="branches-logo-horizontal.svg"
   inkscape:version="1.0.1 (3bc2e813f5, 2020-09-07)">
  <defs
     id="defs10" />
  <sodipodi:namedview
     id="base"
     pagecolor="#ffffff"
     bordercolor="#666666"
     borderopacity="1.0"
     inkscape:pageopacity="0.0"
     inkscape:pageshadow="2"
     inkscape:zoom="0.70710678"
     inkscape:cx="617.01485"
     inkscape:cy="313.80519"
     inkscape:document-units="mm"
     inkscape:current-layer="layer1"
     inkscape:document-rotation="0"
     showgrid="false"
     units="in"
     inkscape:window-width="1278"
     inkscape:window-height="1368"
     inkscape:window-x="1273"
     inkscape:window-y="0"
     inkscape:window-maximized="0"
     lock-margins="true" />
  <metadata
     id="metadata13">
    <rdf:RDF>
      <cc:Work
         rdf:about="">
        <dc:format>image/svg+xml</dc:format>
        <dc:type
           rdf:resource="http://purl.org/dc/dcmitype/StillImage" />
        <dc:title></dc:title>
      </cc:Work>
    </rdf:RDF>
  </metadata>
  <g
     inkscape:label="Layer 1"
     inkscape:groupmode="layer"
     id="layer1">
    <g
       aria-label="PittCSC"
       id="text20"
       style="font-style:normal;font-weight:normal;font-size:50.8px;line-height:1.25;font-family:sans-serif;fill:#000000;fill-opacity:1;stroke:none;stroke-width:0.264583"
       transform="translate(0,-44.450022)">
      <path
         d="m 68.203505,89.906385 v -6.614587 h -4.409726 v 6.614587 z M 54.974329,105.34042 V 76.67721 H 72.61323 l 4.409725,4.409725 v 11.024313 l -4.409725,4.409725 h -8.819451 v 8.819447 z"
         style="font-size:70.5556px;fill:#1c2957;fill-opacity:1"
         id="path17" />
      <path
         d="M 83.637543,105.34042 V 89.906385 H 81.43268 v -6.614587 h 11.024313 v 22.048622 z m 0,-24.253485 V 76.67721 h 8.81945 v 4.409725 z"
         style="font-size:70.5556px;fill:#1c2957;fill-opacity:1"
         id="path19" />
      <path
         d="M 101.27644,105.34042 96.866716,100.9307 V 76.67721 h 8.819454 v 6.614588 h 4.40972 v 6.614587 h -4.40972 v 8.819451 h 4.40972 v 6.614584 z"
         style="font-size:70.5556px;fill:#1c2957;fill-opacity:1"
         id="path21" />
      <path
         d="m 118.91534,105.34042 -4.40972,-4.40972 V 76.67721 h 8.81945 v 6.614588 h 4.40972 v 6.614587 h -4.40972 v 8.819451 h 4.40972 v 6.614584 z"
         style="font-size:70.5556px;fill:#1c2957;fill-opacity:1"
         id="path23" />
      <path
         d="m 136.55424,105.34042 -4.40972,-4.40972 V 81.086935 l 4.40972,-4.409725 h 17.6389 v 11.024313 h -8.81945 v -4.409725 h -4.40972 v 15.434038 h 13.22917 v 6.614584 z"
         style="font-size:70.5556px;fill:#cdb87d;fill-opacity:1"
         id="path25" />
      <path
         d="m 158.60287,105.34042 v -6.614584 h 13.22917 v -4.409725 h -8.81945 l -4.40972,-4.409726 v -8.81945 l 4.40972,-4.409725 h 17.6389 v 8.81945 h -8.81945 v -2.204862 h -4.40972 v 4.409725 h 8.81945 l 4.40972,4.409725 v 8.819452 l -4.40972,4.40972 z"
         style="font-size:70.5556px;fill:#cdb87d;fill-opacity:1"
         id="path27" />
      <path
         d="m 189.47095,105.34042 -4.40972,-4.40972 V 81.086935 l 4.40972,-4.409725 h 17.6389 v 11.024313 h -8.81945 v -4.409725 h -4.40972 v 15.434038 h 13.22917 v 6.614584 z"
         style="font-size:70.5556px;fill:#cdb87d;fill-opacity:1"
         id="path29" />
    </g>
    <text
       xml:space="preserve"
       style="font-style:normal;font-variant:normal;font-weight:normal;font-stretch:normal;font-size:35.2778px;line-height:1.25;font-family:roboto;-inkscape-font-specification:roboto;fill:#000000;fill-opacity:1;stroke:none;stroke-width:0.251453"
       x="6.8896613"
       y="142.86818"
       id="text919"
       transform="scale(0.95037313,1.0522183)"><tspan
         sodipodi:role="line"
         id="tspan917"
         x="6.8896613"
         y="142.86818"
         style="font-style:normal;font-variant:normal;font-weight:normal;font-stretch:normal;font-size:35.2778px;font-family:roboto;-inkscape-font-specification:roboto;stroke-width:0.251453" /></text>
    <g
       aria-label="BRANCHES"
       transform="matrix(0.97190088,0,0,1.0289115,0,-44.450022)"
       id="text925"
       style="font-size:35.7675px;line-height:1.25;font-family:Roboto;-inkscape-font-specification:Roboto;stroke-width:0.268255">
      <path
         d="m 56.512298,134.62383 v -25.42846 h 7.282739 q 3.981929,0 6.199933,1.74646 2.218004,1.72899 2.218004,5.18698 0,1.79886 -0.820836,3.21349 -0.803372,1.39717 -2.39265,2.07829 2.130681,0.43661 3.161092,2.04336 1.047876,1.60674 1.047876,3.75488 0,3.65011 -2.130681,5.53628 -2.113217,1.86872 -6.042752,1.86872 z m 4.925018,-11.26467 v 7.42245 h 3.597707 q 1.606744,0 2.42758,-0.89069 0.820836,-0.90816 0.820836,-2.67209 0,-1.81631 -0.750978,-2.8118 -0.750978,-0.99548 -2.340256,-1.04787 h -0.174646 z m 0,-3.4056 h 2.58476 q 1.589279,-0.0349 2.42758,-0.89069 0.838301,-0.85577 0.838301,-2.47998 0,-1.81632 -0.87323,-2.67208 -0.87323,-0.85577 -2.61969,-0.85577 h -2.357721 z"
         style="font-size:35.7675px;fill:#1c2957;fill-opacity:1;stroke-width:0.268255"
         id="path32" />
      <path
         d="m 81.38189,124.4245 v 10.19933 h -4.925017 v -25.411 h 7.614565 q 3.789819,0 5.955429,1.9735 2.183075,1.9735 2.183075,5.50135 0,1.9735 -0.925624,3.42306 -0.908159,1.44956 -2.637154,2.30533 1.990964,0.66365 2.864194,2.20054 0.87323,1.53688 0.87323,3.84221 v 1.85125 q 0,1.06534 0.244505,2.23547 0.244504,1.17013 0.87323,1.71153 v 0.36676 h -5.099664 q -0.611261,-0.55887 -0.785907,-1.81632 -0.157181,-1.27492 -0.157181,-2.53237 v -1.78139 q 0,-1.93857 -0.803372,-3.00391 -0.803371,-1.06534 -2.305327,-1.06534 z m 0,-3.84221 h 2.654619 q 1.589279,0 2.410115,-0.94309 0.838301,-0.96056 0.838301,-2.70702 0,-1.78138 -0.820836,-2.82926 -0.820837,-1.04788 -2.392651,-1.04788 H 81.38189 Z"
         style="font-size:35.7675px;fill:#1c2957;fill-opacity:1;stroke-width:0.268255"
         id="path34" />
      <path
         d="m 107.474,129.12248 h -6.35711 l -1.432099,5.50135 h -5.134592 l 7.212881,-25.42846 h 5.09966 l 7.21288,25.42846 h -5.15205 z m -5.34416,-3.87715 h 4.33122 l -2.11322,-8.06864 h -0.10479 z"
         style="font-size:35.7675px;fill:#1c2957;fill-opacity:1;stroke-width:0.268255"
         id="path36" />
      <path
         d="m 134.14245,134.62383 h -4.92502 l -8.06865,-16.22462 -0.10478,0.0175 v 16.20715 h -4.92502 V 109.1954 h 4.92502 l 8.06864,16.24208 0.10479,-0.0175 v -16.22461 h 4.92502 z"
         style="font-size:35.7675px;fill:#1c2957;fill-opacity:1;stroke-width:0.268255"
         id="path38" />
      <path
         d="m 154.71575,126.72983 0.0349,0.10478 q 0.0699,4.08672 -2.09575,6.13008 -2.14815,2.02589 -6.14754,2.02589 -4.10419,0 -6.5143,-2.41011 -2.41011,-2.42758 -2.41011,-6.88106 v -7.5447 q 0,-4.43601 2.32279,-6.88106 2.34025,-2.44504 6.30472,-2.44504 4.17404,0 6.40951,2.02589 2.23546,2.0259 2.16561,6.13008 l -0.0349,0.10479 h -4.7853 q 0,-2.44505 -0.87323,-3.42307 -0.85577,-0.97801 -2.88166,-0.97801 -1.85125,0 -2.77687,1.34477 -0.92563,1.32731 -0.92563,4.08672 v 7.57963 q 0,2.77688 0.99548,4.12165 0.99549,1.32731 3.00392,1.32731 1.83378,0 2.63715,-0.96055 0.80337,-0.97802 0.80337,-3.45799 z"
         style="font-size:35.7675px;fill:#1c2957;fill-opacity:1;stroke-width:0.268255"
         id="path40" />
      <path
         d="m 175.86538,134.62383 h -4.90755 v -10.60102 h -8.1909 v 10.60102 h -4.92502 v -25.42846 h 4.92502 v 10.98523 h 8.1909 v -10.98523 h 4.90755 z"
         style="font-size:35.7675px;fill:#1c2957;fill-opacity:1;stroke-width:0.268255"
         id="path42" />
      <path
         d="m 192.49168,123.39409 h -7.77175 v 7.38752 h 9.30863 v 3.84222 h -14.23365 v -25.42846 h 14.19872 v 3.85967 h -9.2737 v 6.49683 h 7.77175 z"
         style="font-size:35.7675px;fill:#1c2957;fill-opacity:1;stroke-width:0.268255"
         id="path44" />
      <path
         d="m 208.367,128.02221 q 0,-1.51942 -0.78591,-2.39265 -0.76844,-0.8907 -2.77687,-1.729 -3.91207,-1.3797 -5.88557,-3.12616 -1.9735,-1.74646 -1.9735,-4.89009 0,-3.12616 2.25293,-5.0822 2.25294,-1.9735 5.74586,-1.9735 3.70249,0 5.95542,2.09575 2.25294,2.09575 2.18308,5.6236 l -0.0349,0.10479 h -4.7853 q 0,-1.9735 -0.89069,-2.98645 -0.87323,-1.03041 -2.51491,-1.03041 -1.41463,0 -2.20054,0.94309 -0.7859,0.92563 -0.7859,2.32279 0,1.29238 0.89069,2.13068 0.8907,0.83831 3.05631,1.83379 3.68503,1.22252 5.5712,3.09123 1.90364,1.86871 1.90364,5.02981 0,3.26588 -2.218,5.13459 -2.218,1.86871 -5.88557,1.86871 -3.61517,0 -6.18247,-2.00843 -2.56729,-2.02589 -2.47997,-6.14754 l 0.0349,-0.10478 h 4.80276 q 0,2.39265 0.96056,3.44052 0.97801,1.04788 2.86419,1.04788 1.58928,0 2.37519,-0.87323 0.80337,-0.87323 0.80337,-2.32279 z"
         style="font-size:35.7675px;fill:#1c2957;fill-opacity:1;stroke-width:0.268255"
         id="path46" />
    </g>
    <path
       d="m 216.05111,33.80919 c 0,1.77927 1.1862,3.33613 2.81719,3.78095 0.0196,17.05143 -0.0743,34.102632 -0.0743,51.153896 -1.63099,0.518957 -2.81719,2.001658 -2.81719,3.780919 0.0743,2.224075 1.85341,4.003336 4.0775,4.003336 2.22409,0 4.00336,-1.779261 4.00336,-4.003336 0,-1.779261 -1.18617,-3.336102 -2.81719,-3.780919 V 70.728998 l 12.01009,-8.377352 V 49.82264 c 1.63101,-0.51895 2.81719,-2.00168 2.81719,-3.78095 0,-2.22409 -1.77928,-4.00336 -4.00336,-4.00336 -2.22409,0 -4.00337,1.77927 -4.00337,4.00336 0,1.77927 1.18618,3.33613 2.81719,3.78095 v 11.342842 l -9.63774,6.746371 V 37.66428 c 1.63102,-0.51896 2.81719,-2.00168 2.81719,-3.78095 0,-2.22409 -1.77927,-4.00337 -4.00336,-4.00337 -2.22409,0 -4.00336,1.70514 -4.00336,3.92923 z m 5.63438,58.715765 c 0,0.889624 -0.74138,1.631011 -1.63102,1.631011 -0.88963,0 -1.63099,-0.741387 -1.63099,-1.631011 0,-0.889637 0.74136,-1.630981 1.63099,-1.630981 0.88964,0 1.63102,0.741344 1.63102,1.630981 z m 8.74808,-46.557405 c 0,-0.88963 0.74135,-1.631 1.63099,-1.631 0.88963,0 1.63101,0.74137 1.63101,1.631 0,0.88964 -0.74138,1.631 -1.63101,1.631 -0.88964,0.0741 -1.63099,-0.66722 -1.63099,-1.631 z"
       id="path2"
       sodipodi:nodetypes="scccssccccsssccccssssssssssscs"
       style="fill:#1c2957;fill-opacity:1" />
  </g>
</svg>
